<?xml version="1.0" encoding="UTF-8"?>
<svg xmlns="http://www.w3.org/2000/svg" version="1.1" width="500" height="500" viewBox="0 0 500 500"><rect x="0" y="0" width="500" height="500" fill="#ffffff"/><g transform="scale(16.129)"><g transform="translate(1,1)"><g><g transform="translate(3.5,3.5)"><path fill-rule="evenodd" d="M-3.5 -3.5L3.5 -3.5L3.5 3.5L-3.5 3.5ZM-2.5 -2.5L-2.5 2.5L2.5 2.5L2.5 -2.5Z" fill="#000000"/><path fill-rule="evenodd" d="M-1.5 -1.5L1.5 -1.5L1.5 1.5L-1.5 1.5Z" fill="#000000"/></g></g><g><g transform="translate(25.5,3.5)"><g transform="rotate(90)"><path fill-rule="evenodd" d="M-3.5 -3.5L3.5 -3.5L3.5 3.5L-3.5 3.5ZM-2.5 -2.5L-2.5 2.5L2.5 2.5L2.5 -2.5Z" fill="#000000"/><path fill-rule="evenodd" d="M-1.5 -1.5L1.5 -1.5L1.5 1.5L-1.5 1.5Z" fill="#000000"/></g></g></g><g><g transform="translate(3.5,25.5)"><g transform="rotate(-90)"><path fill-rule="evenodd" d="M-3.5 -3.5L3.5 -3.5L3.5 3.5L-3.5 3.5ZM-2.5 -2.5L-2.5 2.5L2.5 2.5L2.5 -2.5Z" fill="#000000"/><path fill-rule="evenodd" d="M-1.5 -1.5L1.5 -1.5L1.5 1.5L-1.5 1.5Z" fill="#000000"/></g></g></g><path fill-rule="evenodd" d="M11 0L11 1L10 1L10 2L8 2L8 8L10 8L10 9L12 9L12 8L13 8L13 5L11 5L11 3L12 3L12 4L13 4L13 3L14 3L14 4L15 4L15 5L17 5L17 6L16 6L16 9L13 9L13 11L12 11L12 10L10 10L10 11L9 11L9 13L8 13L8 15L9 15L9 13L10 13L10 14L11 14L11 15L10 15L10 16L13 16L13 15L12 15L12 14L11 14L11 12L14 12L14 13L15 13L15 14L17 14L17 15L16 15L16 16L17 16L17 15L18 15L18 16L20 16L20 17L18 17L18 18L17 18L17 19L19 19L19 20L20 20L20 21L18 21L18 22L17 22L17 23L16 23L16 22L15 22L15 23L14 23L14 24L15 24L15 25L14 25L14 26L15 26L15 27L18 27L18 28L17 28L17 29L23 29L23 28L22 28L22 27L24 27L24 25L25 25L25 23L26 23L26 25L29 25L29 23L27 23L27 22L28 22L28 20L25 20L25 19L27 19L27 18L28 18L28 19L29 19L29 17L27 17L27 18L26 18L26 17L25 17L25 15L27 15L27 16L29 16L29 14L28 14L28 13L27 13L27 14L26 14L26 13L24 13L24 14L23 14L23 15L22 15L22 16L20 16L20 15L21 15L21 14L22 14L22 12L23 12L23 11L22 11L22 12L21 12L21 13L18 13L18 14L17 14L17 13L16 13L16 11L18 11L18 12L20 12L20 11L21 11L21 10L24 10L24 9L25 9L25 11L24 11L24 12L26 12L26 11L27 11L27 10L28 10L28 9L27 9L27 8L22 8L22 9L21 9L21 10L19 10L19 11L18 11L18 10L16 10L16 9L17 9L17 6L18 6L18 7L19 7L19 8L18 8L18 9L19 9L19 8L20 8L20 7L21 7L21 3L20 3L20 2L21 2L21 0L20 0L20 2L19 2L19 1L16 1L16 0L13 0L13 1L12 1L12 0ZM14 2L14 3L15 3L15 2ZM16 2L16 4L17 4L17 5L19 5L19 7L20 7L20 3L19 3L19 2L18 2L18 3L17 3L17 2ZM18 3L18 4L19 4L19 3ZM9 5L9 7L10 7L10 8L11 8L11 7L12 7L12 6L11 6L11 5ZM10 6L10 7L11 7L11 6ZM14 6L14 8L15 8L15 6ZM0 8L0 9L1 9L1 8ZM2 8L2 9L3 9L3 10L4 10L4 11L1 11L1 10L0 10L0 11L1 11L1 13L0 13L0 14L1 14L1 16L0 16L0 21L1 21L1 18L2 18L2 17L3 17L3 15L4 15L4 16L5 16L5 15L4 15L4 14L5 14L5 13L3 13L3 12L5 12L5 11L7 11L7 12L6 12L6 13L7 13L7 12L8 12L8 11L7 11L7 10L8 10L8 9L7 9L7 8ZM6 9L6 10L7 10L7 9ZM26 9L26 10L27 10L27 9ZM14 11L14 12L15 12L15 11ZM28 11L28 12L29 12L29 11ZM1 13L1 14L2 14L2 15L3 15L3 14L2 14L2 13ZM6 14L6 15L7 15L7 14ZM18 14L18 15L20 15L20 14ZM24 14L24 15L25 15L25 14ZM14 15L14 16L15 16L15 15ZM1 16L1 17L2 17L2 16ZM6 16L6 17L8 17L8 18L6 18L6 19L5 19L5 20L6 20L6 21L8 21L8 22L9 22L9 23L8 23L8 27L9 27L9 25L10 25L10 26L12 26L12 27L11 27L11 28L10 28L10 29L11 29L11 28L12 28L12 27L13 27L13 28L14 28L14 29L16 29L16 28L14 28L14 27L13 27L13 26L12 26L12 24L9 24L9 23L12 23L12 22L13 22L13 21L12 21L12 22L9 22L9 16ZM22 16L22 17L23 17L23 18L20 18L20 20L21 20L21 19L23 19L23 18L24 18L24 19L25 19L25 18L24 18L24 17L23 17L23 16ZM10 17L10 18L13 18L13 20L14 20L14 21L17 21L17 20L16 20L16 17ZM3 18L3 19L4 19L4 18ZM6 19L6 20L7 20L7 19ZM14 19L14 20L15 20L15 19ZM2 20L2 21L3 21L3 20ZM21 21L21 24L24 24L24 21ZM25 21L25 22L27 22L27 21ZM19 22L19 23L17 23L17 24L16 24L16 23L15 23L15 24L16 24L16 25L15 25L15 26L18 26L18 27L19 27L19 26L20 26L20 27L22 27L22 25L21 25L21 26L20 26L20 25L19 25L19 26L18 26L18 25L17 25L17 24L20 24L20 22ZM22 22L22 23L23 23L23 22ZM26 26L26 27L25 27L25 28L24 28L24 29L27 29L27 27L28 27L28 28L29 28L29 27L28 27L28 26ZM8 28L8 29L9 29L9 28Z" fill="#000000"/></g></g></svg>
